<svg xmlns="http://www.w3.org/2000/svg" aria-hidden="true" style="position:absolute;width:0;height:0;overflow:hidden">
  <defs>
    <symbol id="icon-arrow-down" viewBox="0 0 32 32">
      <path stroke-linecap="round" stroke-linejoin="round" stroke-width="2" d="M26 12 16 22 6 12"/>
    </symbol>
    <symbol id="icon-arrow-left" viewBox="0 0 32 32">
      <path stroke-linecap="round" stroke-linejoin="round" stroke-width="2" d="M20 26 10 16 20 6"/>
    </symbol>
    <symbol id="icon-arrow-right" viewBox="0 0 32 32">
      <path stroke-linecap="round" stroke-linejoin="round" stroke-width="2" d="m12 6 10 10-10 10"/>
    </symbol>
    <symbol id="icon-burger" viewBox="0 0 31 32">
      <path stroke-linecap="round" stroke-linejoin="round" stroke-width="1.92" d="M4.8 16.332h21.12M4.8 8.652h21.12M4.8 24.012h21.12"/>
    </symbol>
    <symbol id="icon-buttery-soft" viewBox="0 0 32 32">
      <path stroke-linecap="round" stroke-linejoin="round" stroke-width=".75" d="M26.358 21.946c-.025-.02-6.883-5.847-10.03 0 3.147 5.846 10.008.02 10.03 0zm-20.121 0c.025-.02 6.883-5.847 10.03 0-3.147 5.846-10.008.02-10.03 0z"/>
      <path stroke-linecap="round" stroke-linejoin="round" stroke-width=".75" d="M16.238 21.765v4.171m6.226-17.218c-.276 0-.549.02-.815.055-1.123-1.838-3.118-3.046-5.395-3.046h-.004a6.302 6.302 0 0 0-5.399 3.046 6.192 6.192 0 0 0-.814-.055h-.001a6.307 6.307 0 1 0-.002 12.614c1.278 0 5.17-.055 6.216-.055s4.939.055 6.216.055a6.307 6.307 0 1 0 0-12.614h-.003z"/>
      <path stroke-linecap="round" stroke-linejoin="round" stroke-width=".75" d="M21.918 18.011v-.008l-.01.008c-.219-.012-2.418-.103-4.01.921-.113-1.912-1.527-3.651-1.671-3.819V15.1l-.005.008-.005-.008v.012c-.141.168-1.54 1.886-1.668 3.784-1.59-.986-3.741-.898-3.957-.885l-.01-.008v.008h-.008l.01.008c.08.34 1.386 5.565 5.602 4.267l.053.04v.017l.01-.008.01.008v-.017l.053-.04c4.214 1.298 5.522-3.927 5.602-4.267l.01-.008h-.008z"/>
    </symbol>
    <symbol id="icon-cart" viewBox="0 0 32 32">
      <path stroke-linecap="round" stroke-linejoin="round" stroke-width="2" d="M26.209 9H5.79c-.513 0-.936.383-.999.879l-.001.005-1.78 15A1 1 0 0 0 4.003 26h23.994a1 1 0 0 0 .993-1.121v.005l-1.781-15a1.009 1.009 0 0 0-1-.884zM11 9V8a5 5 0 0 1 10 0v1"/>
    </symbol>
    <symbol id="icon-durable" viewBox="0 0 32 32">
      <path stroke-linecap="round" stroke-linejoin="round" stroke-width=".75" d="M14.671 16.844c1.532 2.159 4.754 1.78 6.333 0l3.141-3.158c1.775-1.939 1.838-4.443 0-6.316-1.794-1.827-4.523-1.827-6.316 0l-3.158 3.158"/>
      <path stroke-linecap="round" stroke-linejoin="round" stroke-width=".75" d="M17.829 15.376c-1.532-2.159-4.737-1.89-6.316-.11l-3.158 3.118c-1.775 1.939-1.838 4.483 0 6.355 1.793 1.827 4.522 1.827 6.316 0l3.158-3.158"/>
    </symbol>
    <symbol id="icon-especially-formulated-fabric" viewBox="0 0 32 32">
      <path stroke-width=".75" d="M15.688 11.459a.618.618 0 0 1 .628.001l-.003-.002 13 7.506a.625.625 0 0 1 .002 1.081l-.003.002-13 7.505a.618.618 0 0 1-.555.035l.004.002-.074-.037-13-7.506a.625.625 0 0 1-.002-1.081l.003-.002 13-7.506z"/>
      <path stroke-linecap="round" stroke-width=".75" d="M15.664 8.302a.62.62 0 0 1 .619.002l-.003-.002 12.971 7.35a.626.626 0 0 1 .003 1.087l-.003.002-12.971 7.35a.62.62 0 0 1-.619-.002l.003.002-12.972-7.35a.625.625 0 0 1-.003-1.086l.003-.002 12.972-7.351z"/>
      <path stroke-width=".75" d="M15.688 4.458a.618.618 0 0 1 .628.001l-.003-.002 13 7.506a.625.625 0 0 1 .002 1.081l-.003.002-13 7.505a.618.618 0 0 1-.555.035l.004.002-.074-.037-13-7.505a.625.625 0 0 1-.002-1.081l.003-.002 13-7.506z"/>
    </symbol>
    <symbol id="icon-fit-and-colour-retention" viewBox="0 0 32 32">
      <path stroke-linecap="round" stroke-linejoin="round" stroke-width=".75" d="M8.205 5.5h3.862s0 3.862 3.862 3.862S19.791 5.5 19.791 5.5h3.862m.001 9.011v10.814a.773.773 0 0 1-.773.772H8.978a.772.772 0 0 1-.772-.772V14.511M23.654 5.5l5.72 2.287a.773.773 0 0 1 .428 1.01l.002-.005-2.093 5.234a.774.774 0 0 1-.717.486h-3.339M8.205 5.5l-5.72 2.287a.773.773 0 0 0-.428 1.009l-.002-.005 2.094 5.234a.776.776 0 0 0 .717.486h3.34"/>
      <path stroke-width=".75" d="M15.892 9.362v16.896m-.076-.326 7.725-4.345m-7.725.965 7.725-4.345m-7.725.966 7.725-4.345m-7.713.959 14-7.241m-14 3.863 11.149-5.766"/>
    </symbol>
    <symbol id="icon-flattering-fit" viewBox="0 0 32 32">
      <path stroke-linecap="round" stroke-linejoin="round" stroke-width=".75" d="m27.628 17.579-2.996.998m3.158 3.74-3.115-.52m4.76-1.586h-4.736M4.333 17.579l2.996.998m-3.158 3.74 3.115-.52m-4.76-1.586h4.737M8.236 6h3.882s0 3.882 3.882 3.882S19.881 6 19.881 6h3.882l5.749 2.3a.779.779 0 0 1 .43 1.014l.002-.005-2.105 5.261a.779.779 0 0 1-.72.488h-3.357s-.393 1.362-.509 2.259c-.158 1.23-.268 1.872-.268 3.175 0 2.132.776 5.435.776 5.435a.775.775 0 0 1-.776.776H9.011a.777.777 0 0 1-.777-.776s.545-3.303.61-5.434c.032-1.035.091-2.145 0-3.176-.097-1.102-.61-2.258-.61-2.258H4.877a.777.777 0 0 1-.719-.483l-.002-.005L2.052 9.31a.777.777 0 0 1 .428-1.007l.005-.002 5.749-2.3z"/>
    </symbol>
    <symbol id="icon-logo" viewBox="0 0 84 32">
      <path d="M0 0h84.174v31.664H0z"/>
    </symbol>
    <symbol id="icon-pre-shrunk" viewBox="0 0 32 32">
      <path stroke-linecap="round" stroke-linejoin="round" stroke-width=".75" d="M8.736 6h3.882s0 3.882 3.882 3.882S20.381 6 20.381 6h3.882m.001 9.057v10.868a.775.775 0 0 1-.776.776H9.513a.777.777 0 0 1-.777-.776V15.057M24.264 6l5.749 2.3a.78.78 0 0 1 .431 1.014l.002-.005-2.105 5.261a.779.779 0 0 1-.72.488h-3.357M8.736 6 2.988 8.3a.78.78 0 0 0-.431 1.014l-.002-.005 2.104 5.261a.779.779 0 0 0 .72.488h3.357"/>
    </symbol>
    <symbol id="icon-search" viewBox="0 0 32 32">
      <path stroke-linecap="round" stroke-linejoin="round" stroke-width="2" d="M14 24c5.523 0 10-4.477 10-10S19.523 4 14 4 4 8.477 4 14s4.477 10 10 10zm7.071-2.929L28 28"/>
    </symbol>
    <symbol id="icon-user" viewBox="0 0 32 32">
      <path stroke-linecap="round" stroke-linejoin="round" stroke-width="2" d="M16 20a8 8 0 0 0 0-16 8 8 0 0 0 0 16zM4 27c2.421-4.184 6.819-7 12-7s9.579 2.816 12 7"/>
    </symbol>
    <symbol id="icon-close" viewBox="0 0 32 32">
      <path d="M32 3.223 28.777 0 16 12.777 3.223 0 0 3.223 12.777 16 0 28.777 3.223 32 16 19.223 28.777 32 32 28.777 19.223 16 32 3.223z"/>
    </symbol>
    <symbol id="icon-arrow" viewBox="0 0 1388 32">
``````<path fill="#e0dbcf" style="fill: var(--color1, #e0dbcf)" d="M1.333 16c0 5.891 4.776 10.667 10.667 10.667s10.667-4.776 10.667-10.667c0-5.891-4.776-10.667-10.667-10.667s-10.667 4.776-10.667 10.667zM1385.416 17.414c0.78-0.781 0.78-2.047 0-2.828l-12.728-12.728c-0.784-0.781-2.048-0.781-2.832 0-0.78 0.781-0.78 2.047 0 2.828l11.316 11.314-11.316 11.314c-0.78 0.781-0.78 2.047 0 2.828 0.784 0.781 2.048 0.781 2.832 0l12.728-12.728zM12 16v2l1372 0v-4l-1372-0v2z"></path>
````</symbol>
````<symbol id="icon-long-arrow" viewBox="0 0 2670 32">
``````<path fill="#e0dbcf" style="fill: var(--color1, #e0dbcf)" d="M1.333 16c0 5.891 4.776 10.667 10.667 10.667s10.667-4.776 10.667-10.667c0-5.891-4.776-10.667-10.667-10.667s-10.667 4.776-10.667 10.667zM2669.42 17.414c0.78-0.781 0.78-2.047 0-2.828l-12.74-12.728c-0.78-0.781-2.040-0.781-2.82 0s-0.78 2.047 0 2.828l11.32 11.314-11.32 11.314c-0.78 0.781-0.78 2.047 0 2.828s2.040 0.781 2.82 0l12.74-12.728zM12 16v2l2656-4-2656 2z"></path>
````</symbol>
  </defs>
</svg>

